<svg xmlns="http://www.w3.org/2000/svg" viewBox="0 0 800 600" fill="none">
  <defs>
    <linearGradient id="bg-dell-biz" x1="0" y1="0" x2="800" y2="600" gradientUnits="userSpaceOnUse">
      <stop offset="0%" stop-color="#F8FAFC"/>
      <stop offset="100%" stop-color="#DBEAFE"/>
    </linearGradient>
    <linearGradient id="screen-dell-biz" x1="180" y1="115" x2="620" y2="415" gradientUnits="userSpaceOnUse">
      <stop offset="0%" stop-color="#0B1220"/>
      <stop offset="50%" stop-color="#1E293B"/>
      <stop offset="100%" stop-color="#2563EB"/>
    </linearGradient>
  </defs>
  <rect width="800" height="600" fill="url(#bg-dell-biz)"/>
  <ellipse cx="400" cy="465" rx="280" ry="22" fill="#0B1220" fill-opacity="0.12"/>
  <rect x="172" y="112" width="456" height="303" rx="16" fill="#0F172A" stroke="#334155" stroke-width="4"/>
  <rect x="184" y="124" width="432" height="276" rx="6" fill="url(#screen-dell-biz)"/>
  <circle cx="400" cy="262" r="48" stroke="#60A5FA" stroke-width="2.5" fill="#2563EB" fill-opacity="0.15"/>
  <text x="400" y="270" text-anchor="middle" fill="#FFFFFF" font-family="system-ui, sans-serif" font-weight="800" font-size="22" letter-spacing="2">DELL</text>
  <path d="M112 415H688L716 442C716 450 708 456 696 456H104C92 456 84 450 84 442L112 415Z" fill="#94A3B8"/>
  <path d="M112 415H688L694 423H106L112 415Z" fill="#64748B"/>
  <rect x="345" y="415" width="110" height="7" rx="3.5" fill="#334155"/>
</svg>
